<svg width="48" height="48" viewBox="0 0 48 48" fill="none" xmlns="http://www.w3.org/2000/svg">
<rect width="48" height="48" rx="24" fill="#D7EDFF"/>
<path fill-rule="evenodd" clip-rule="evenodd" d="M26.4 36.0133H21.6C17.0745 36.0133 14.8118 36.0133 13.4059 34.6074C12 33.2016 12 30.9387 12 26.4133V21.6133C12 17.0878 12 14.8251 13.4059 13.4192C14.8118 12.0133 17.0864 12.0133 21.6358 12.0133C22.363 12.0133 22.9457 12.0133 23.436 12.0333C23.4199 12.1292 23.4114 12.227 23.411 12.326L23.4 15.7272C23.3999 17.0438 23.3998 18.2072 23.5259 19.1451C23.6626 20.1616 23.9764 21.178 24.8059 22.0075C25.6354 22.837 26.6518 23.1508 27.6683 23.2875C28.6062 23.4136 29.7696 23.4135 31.0861 23.4134H31.2H35.9489C36 24.0546 36 24.8414 36 25.8888V26.4133C36 30.9387 36 33.2016 34.5941 34.6074C33.1883 36.0133 30.9254 36.0133 26.4 36.0133Z" fill="#268CDF"/>
<path d="M32.8221 18.4212L28.0715 14.1458C26.7181 12.9277 26.0415 12.3186 25.2111 12L25.2 15.2814C25.2 18.1098 25.2 19.524 26.0787 20.4027C26.9574 21.2814 28.3716 21.2814 31.2 21.2814H35.4961C35.061 20.4363 34.2821 19.7352 32.8221 18.4212Z" fill="#268CDF"/>
</svg>
