<svg width="18" height="22" viewBox="0 0 18 22" fill="none" xmlns="http://www.w3.org/2000/svg">
<path d="M9.02009 1.91003C5.71009 1.91003 3.02009 4.60003 3.02009 7.91003V10.8C3.02009 11.41 2.76009 12.34 2.45009 12.86L1.30009 14.77C0.590088 15.95 1.08009 17.26 2.38009 17.7C6.69009 19.14 11.3401 19.14 15.6501 17.7C16.8601 17.3 17.3901 15.87 16.7301 14.77L15.5801 12.86C15.2801 12.34 15.0201 11.41 15.0201 10.8V7.91003C15.0201 4.61003 12.3201 1.91003 9.02009 1.91003Z" stroke="#474747" stroke-width="1.5" stroke-miterlimit="10" stroke-linecap="round"/>
<path d="M10.8699 2.19994C10.5599 2.10994 10.2399 2.03994 9.90992 1.99994C8.94992 1.87994 8.02992 1.94994 7.16992 2.19994C7.45992 1.45994 8.17992 0.939941 9.01992 0.939941C9.85992 0.939941 10.5799 1.45994 10.8699 2.19994Z" stroke="#474747" stroke-width="1.5" stroke-miterlimit="10" stroke-linecap="round" stroke-linejoin="round"/>
<path d="M12.02 18.0601C12.02 19.7101 10.67 21.0601 9.02002 21.0601C8.20002 21.0601 7.44002 20.7201 6.90002 20.1801C6.36002 19.6401 6.02002 18.8801 6.02002 18.0601" stroke="#474747" stroke-width="1.5" stroke-miterlimit="10"/>
</svg>
