<svg width="49" height="48" viewBox="0 0 49 48" fill="none" xmlns="http://www.w3.org/2000/svg">
<rect x="0.5" width="48" height="48" rx="24" fill="#EAF4E1"/>
<path d="M35.75 24C35.75 30.6274 30.3774 36 23.75 36C17.1226 36 11.75 30.6274 11.75 24C11.75 17.3726 17.1226 12 23.75 12C30.3774 12 35.75 17.3726 35.75 24Z" fill="#1A8C4F"/>
<path d="M28.2841 20.0909C28.6136 20.4204 28.6136 20.9546 28.2841 21.2841L22.6591 26.9091C22.3296 27.2386 21.7954 27.2386 21.4659 26.9091L19.2159 24.6591C18.8864 24.3296 18.8864 23.7954 19.2159 23.4659C19.5454 23.1364 20.0796 23.1364 20.4091 23.4659L22.0625 25.1192L24.5766 22.6051L27.0909 20.0909C27.4204 19.7614 27.9546 19.7614 28.2841 20.0909Z" fill="#EAF4E1"/>
</svg>
