<svg width="16" height="16" viewBox="0 0 16 16" fill="none" xmlns="http://www.w3.org/2000/svg">
<path d="M13.1933 9.95333C11.82 11.32 9.85333 11.74 8.12667 11.2L4.98667 14.3333C4.76 14.5667 4.31333 14.7067 3.99333 14.66L2.54 14.46C2.06 14.3933 1.61333 13.94 1.54 13.46L1.34 12.0067C1.29333 11.6867 1.44667 11.24 1.66667 11.0133L4.8 7.88C4.26667 6.14667 4.68 4.18 6.05333 2.81333C8.02 0.846666 11.2133 0.846666 13.1867 2.81333C15.16 4.78 15.16 7.98667 13.1933 9.95333Z" stroke="#1A8C4F" stroke-miterlimit="10" stroke-linecap="round" stroke-linejoin="round"/>
<path d="M4.59333 11.66L6.12667 13.1933" stroke="#1A8C4F" stroke-miterlimit="10" stroke-linecap="round" stroke-linejoin="round"/>
<path d="M9.66667 7.33334C10.219 7.33334 10.6667 6.88563 10.6667 6.33334C10.6667 5.78106 10.219 5.33334 9.66667 5.33334C9.11438 5.33334 8.66667 5.78106 8.66667 6.33334C8.66667 6.88563 9.11438 7.33334 9.66667 7.33334Z" stroke="#1A8C4F" stroke-linecap="round" stroke-linejoin="round"/>
</svg>
