<svg width="49" height="48" viewBox="0 0 49 48" fill="none" xmlns="http://www.w3.org/2000/svg">
<rect x="0.75" width="48" height="48" rx="24" fill="#FFF4E4"/>
<path d="M37.0005 24C37.0005 30.6274 31.6278 36 25.0005 36C18.3731 36 13.0005 30.6274 13.0005 24C13.0005 17.3726 18.3731 12 25.0005 12C31.6278 12 37.0005 17.3726 37.0005 24Z" fill="#EAA23D"/>
<path fill-rule="evenodd" clip-rule="evenodd" d="M25.0005 18.3C25.4975 18.3 25.9005 18.703 25.9005 19.2V23.6272L28.6368 26.3636C28.9883 26.7151 28.9883 27.2849 28.6368 27.6364C28.2853 27.9878 27.7156 27.9878 27.3641 27.6364L24.3641 24.6364C24.1953 24.4676 24.1005 24.2387 24.1005 24V19.2C24.1005 18.703 24.5034 18.3 25.0005 18.3Z" fill="#FFF4E4"/>
</svg>
