<svg width="49" height="48" viewBox="0 0 49 48" fill="none" xmlns="http://www.w3.org/2000/svg">
<rect x="0.25" width="48" height="48" rx="24" fill="#FFDCDC"/>
<path fill-rule="evenodd" clip-rule="evenodd" d="M27.9927 27.18C28.286 27.4725 28.286 27.9525 27.9927 28.245C27.7002 28.5375 27.2248 28.5375 26.9315 28.245L23.7545 25.065L20.555 28.2675C20.2595 28.56 19.781 28.56 19.4855 28.2675C19.1908 27.9675 19.1908 27.4875 19.4855 27.195L22.685 23.9925L19.508 20.82C19.2147 20.5275 19.2147 20.0475 19.508 19.755C19.7997 19.4625 20.2752 19.4625 20.5685 19.755L23.7455 22.935L26.969 19.71C27.2645 19.4175 27.7422 19.4175 28.0377 19.71C28.3325 20.01 28.3325 20.4825 28.0377 20.7825L24.815 24.0075L27.9927 27.18ZM23.75 12C17.1223 12 11.75 17.37 11.75 24C11.75 30.63 17.1223 36 23.75 36C30.3778 36 35.75 30.63 35.75 24C35.75 17.37 30.3778 12 23.75 12Z" fill="#E93535"/>
</svg>
