<svg width="16" height="17" viewBox="0 0 16 17" fill="none" xmlns="http://www.w3.org/2000/svg">
<path d="M6.5 8.5C6.5 9.327 7.173 10 8 10C8.827 10 9.5 9.327 9.5 8.5C9.5 7.673 8.827 7 8 7C7.173 7 6.5 7.673 6.5 8.5Z" fill="#868686"/>
<path d="M6.5 13.5C6.5 14.327 7.173 15 8 15C8.827 15 9.5 14.327 9.5 13.5C9.5 12.673 8.827 12 8 12C7.173 12 6.5 12.673 6.5 13.5Z" fill="#868686"/>
<path d="M6.5 3.5C6.5 4.327 7.173 5 8 5C8.827 5 9.5 4.327 9.5 3.5C9.5 2.673 8.827 2 8 2C7.173 2 6.5 2.673 6.5 3.5Z" fill="#868686"/>
</svg>
